<svg width="296" height="296" version="1.1" xmlns="http://www.w3.org/2000/svg" desc="Created with imagetracer.js version 1.2.6" ><path fill="rgb(59,68,80)" stroke="rgb(59,68,80)" stroke-width="1" opacity="1" d="M 54.5 26 L 245.5 26 L 248 28.5 L 248 50.5 L 246.5 52 Q 241.1 51.4 241 52.5 L 241 261.5 L 236.5 268 L 234.5 269 L 65.5 269 L 61 265.5 L 60 263.5 L 59 125.5 L 60 124.5 L 60 70.5 L 59 69.5 L 59 59.5 Q 61.3 58.3 60 53.5 L 52 50.5 L 52 28.5 L 54.5 26 Z M 58 33 L 58 45 L 59 45 L 98 45 L 98 34 L 98 33 L 58 33 Z M 104 33 L 104 50 L 105 51 L 105 77 L 106 78 L 106 105 L 107 106 L 107 125 L 108 126 L 109 129 L 192 129 L 193 128 L 193 114 L 194 113 L 193 110 L 194 109 L 194 88 L 195 87 L 195 61 L 196 60 L 196 34 L 196 33 L 104 33 Z M 203 33 L 202 37 L 202 45 L 203 45 L 242 45 L 242 34 L 242 33 L 203 33 Z M 66 52 L 66 70 L 71 72 L 99 72 L 99 55 L 98 54 L 98 52 L 66 52 Z M 202 52 L 201 72 L 230 72 L 234 70 L 235 54 L 234 52 L 202 52 Z M 234 77 L 230 79 L 201 79 L 200 106 Q 217 104 227 111 L 232 119 L 233 123 L 233 140 L 228 150 L 232 151 Q 233 155 235 152 L 235 138 L 234 137 L 234 126 L 235 125 L 235 79 L 234 77 Z M 66 78 L 67 111 L 78 106 L 89 106 L 101 110 L 100 108 L 100 82 L 99 79 L 71 79 L 66 78 Z M 77 113 L 72 115 L 66 123 L 66 170 L 69 175 L 79 179 L 88 179 L 97 176 L 101 170 L 101 122 L 100 120 L 91 113 L 77 113 Z M 200 113 Q 198 119 199 130 L 197 134 L 193 136 L 161 136 L 163 143 L 171 148 L 217 148 L 222 146 L 227 139 L 227 124 L 224 118 L 217 113 L 200 113 Z M 108 136 L 108 171 L 110 174 L 113 176 L 121 179 L 135 178 L 140 175 L 143 170 L 143 136 L 108 136 Z M 149 136 L 149 171 L 144 180 L 151 183 L 151 167 L 150 166 L 156 155 L 162 151 L 155 141 L 155 136 L 149 136 Z M 168 155 L 162 158 L 157 166 L 157 211 L 159 215 L 166 220 L 184 220 L 187 219 Q 191 216 193 210 L 193 166 L 192 163 Q 186 152 168 155 Z M 195 155 Q 195 159 197 156 L 195 155 Z M 210 155 L 205 157 L 199 165 L 199 211 L 201 215 L 208 220 L 226 220 L 230 218 L 234 212 L 234 164 L 233 162 Q 227 152 210 155 Z M 103 177 L 103 179 L 106 179 L 103 177 Z M 66 181 L 66 262 L 75 262 L 71 254 L 71 237 L 74 230 Q 77 223 84 222 L 79 213 L 79 194 L 83 185 L 74 185 L 66 181 Z M 98 185 L 88 189 L 85 195 L 85 212 L 88 217 L 94 220 L 142 220 L 146 218 L 151 211 Q 153 198 149 192 L 145 187 L 137 185 L 98 185 Z M 154 219 L 144 227 L 149 236 L 149 255 L 147 260 L 146 262 L 159 262 L 155 255 L 155 236 L 161 226 L 154 219 Z M 234 223 L 227 227 Q 232 230 233 237 L 233 254 L 230 261 L 230 262 Q 234 263 235 261 L 235 252 L 234 251 L 234 241 L 235 240 L 235 224 L 234 223 Z M 89 227 L 84 229 Q 79 232 77 239 Q 75 250 79 257 L 87 262 L 134 262 L 138 260 L 143 254 L 143 238 L 140 232 L 136 228 L 131 227 L 89 227 Z M 173 227 L 166 230 L 161 238 L 161 253 L 162 256 L 171 262 L 218 262 L 222 260 L 227 253 L 227 238 L 225 234 Q 222 228 215 227 L 173 227 Z " /><path fill="rgb(59,68,80)" stroke="rgb(59,68,80)" stroke-width="1" opacity="1" d="M 120.5 42 L 179.5 42 L 182 43 L 184 48.5 L 184 80.5 L 182 85 L 176.5 87 L 123.5 87 L 117 82.5 L 117 45.5 L 120.5 42 Z M 123 48 L 123 80 L 177 80 L 178 79 L 178 49 L 176 48 L 123 48 Z " /><path fill="rgb(59,68,80)" stroke="rgb(59,68,80)" stroke-width="1" opacity="1" d="M 133.5 61 L 166.5 61 L 168 62.5 Q 168.8 66.3 166.5 67 L 133.5 67 L 132 65.5 Q 131.3 61.8 133.5 61 Z " /><path fill="rgb(59,68,80)" stroke="rgb(59,68,80)" stroke-width="1" opacity="1" d="M 122.5 95 L 177.5 95 L 180 97.5 L 178.5 101 L 176.5 102 L 123.5 102 L 121 101 L 120 98.5 L 122.5 95 Z " /><path fill="rgb(59,68,80)" stroke="rgb(59,68,80)" stroke-width="1" opacity="1" d="M 130.5 110 L 169.5 110 L 172 112.5 Q 173.5 116.9 170.5 116 L 169.5 117 L 130.5 117 Q 127.5 116.5 128 112.5 L 130.5 110 Z " /><path fill="rgb(135,141,149)" stroke="rgb(135,141,149)" stroke-width="1" opacity="1" d="M 246.5 26 L 247.5 28 L 246.5 26 Z " /><path fill="rgb(135,141,149)" stroke="rgb(135,141,149)" stroke-width="1" opacity="1" d="M 248.5 29 L 249 50.5 L 247 51.5 L 248 50.5 L 248.5 29 Z " /><path fill="rgb(135,141,149)" stroke="rgb(135,141,149)" stroke-width="1" opacity="1" d="M 58 33 L 97 33.5 L 59 34 L 58.5 45 L 58 33 Z " /><path fill="rgb(135,141,149)" stroke="rgb(135,141,149)" stroke-width="1" opacity="1" d="M 104.5 33 L 194.5 33 L 196 34.5 L 195.5 39 L 195 34 L 104.5 34 L 104.5 33 Z " /><path fill="rgb(135,141,149)" stroke="rgb(135,141,149)" stroke-width="1" opacity="1" d="M 203.5 33 L 241 33.5 L 203.5 34 L 203.5 33 Z " /><path fill="rgb(135,141,149)" stroke="rgb(135,141,149)" stroke-width="1" opacity="1" d="M 202.5 36 L 203 44.5 L 202 44.5 L 202.5 36 Z " /><path fill="rgb(135,141,149)" stroke="rgb(135,141,149)" stroke-width="1" opacity="1" d="M 104.5 37 L 105 46.5 L 104 46.5 L 104.5 37 Z " /><path fill="rgb(135,141,149)" stroke="rgb(135,141,149)" stroke-width="1" opacity="1" d="M 121.5 41 L 179 41.5 L 121.5 42 L 121.5 41 Z " /><path fill="rgb(135,141,149)" stroke="rgb(135,141,149)" stroke-width="1" opacity="1" d="M 115.5 48 L 116 79.5 L 115 79.5 L 115.5 48 Z " /><path fill="rgb(135,141,149)" stroke="rgb(135,141,149)" stroke-width="1" opacity="1" d="M 123.5 48 L 175.5 48 L 177 49.5 L 177 80 L 123.5 80 L 123.5 79 L 176 79 L 176 49 L 123.5 49 L 123.5 48 Z " /><path fill="rgb(135,141,149)" stroke="rgb(135,141,149)" stroke-width="1" opacity="1" d="M 53.5 52 Q 58 51 59 53.5 L 58.5 261 L 58 53 L 53.5 53 L 53.5 52 Z " /><path fill="rgb(135,141,149)" stroke="rgb(135,141,149)" stroke-width="1" opacity="1" d="M 66.5 52 L 96.5 52 L 98 53.5 L 97.5 60 L 97 53 L 66.5 53 L 66.5 52 Z " /><path fill="rgb(135,141,149)" stroke="rgb(135,141,149)" stroke-width="1" opacity="1" d="M 203.5 52 L 232.5 52 L 234 53.5 L 233.5 69 L 233 53 L 203.5 53 L 203.5 52 Z " /><path fill="rgb(135,141,149)" stroke="rgb(135,141,149)" stroke-width="1" opacity="1" d="M 241.5 52 L 246 52.5 L 241.5 53 L 241.5 52 Z " /><path fill="rgb(135,141,149)" stroke="rgb(135,141,149)" stroke-width="1" opacity="1" d="M 194.5 53 L 195 65.5 L 194 65.5 L 194.5 53 Z " /><path fill="rgb(135,141,149)" stroke="rgb(135,141,149)" stroke-width="1" opacity="1" d="M 133.5 60 L 166.5 60 L 168 61.5 L 166.5 61 L 133.5 61 L 133.5 60 Z " /><path fill="rgb(135,141,149)" stroke="rgb(135,141,149)" stroke-width="1" opacity="1" d="M 168.5 63 L 169 65.5 L 166.5 68 L 133.5 68 L 133.5 67 L 166.5 67 L 168 65.5 L 168.5 63 Z " /><path fill="rgb(135,141,149)" stroke="rgb(135,141,149)" stroke-width="1" opacity="1" d="M 201.5 63 L 202 71.5 L 201 71.5 L 201.5 63 Z " /><path fill="rgb(135,141,149)" stroke="rgb(135,141,149)" stroke-width="1" opacity="1" d="M 105.5 64 L 106 72.5 L 105 72.5 L 105.5 64 Z " /><path fill="rgb(135,141,149)" stroke="rgb(135,141,149)" stroke-width="1" opacity="1" d="M 70.5 71 L 74 71.5 L 70.5 72 L 70.5 71 Z " /><path fill="rgb(135,141,149)" stroke="rgb(135,141,149)" stroke-width="1" opacity="1" d="M 226.5 71 L 230 71.5 L 226.5 72 L 226.5 71 Z " /><path fill="rgb(135,141,149)" stroke="rgb(135,141,149)" stroke-width="1" opacity="1" d="M 67.5 78 L 70 78.5 L 67.5 79 L 67.5 78 Z " /><path fill="rgb(135,141,149)" stroke="rgb(135,141,149)" stroke-width="1" opacity="1" d="M 233.5 78 L 234 152.5 L 232 151.5 L 233 150.5 L 233 142.5 L 232 140.5 L 233 139.5 L 233 122.5 L 232 120.5 L 233 119.5 L 233.5 78 Z " /><path fill="rgb(135,141,149)" stroke="rgb(135,141,149)" stroke-width="1" opacity="1" d="M 98.5 79 L 99 86.5 L 98 86.5 L 98.5 79 Z " /><path fill="rgb(135,141,149)" stroke="rgb(135,141,149)" stroke-width="1" opacity="1" d="M 193.5 79 L 194 92.5 L 193 92.5 L 193.5 79 Z " /><path fill="rgb(135,141,149)" stroke="rgb(135,141,149)" stroke-width="1" opacity="1" d="M 183.5 81 L 184 82.5 L 182 83.5 L 183.5 81 Z " /><path fill="rgb(135,141,149)" stroke="rgb(135,141,149)" stroke-width="1" opacity="1" d="M 117.5 84 L 118.5 86 L 117.5 84 Z " /><path fill="rgb(135,141,149)" stroke="rgb(135,141,149)" stroke-width="1" opacity="1" d="M 120.5 86 L 123 86.5 L 120.5 87 L 120.5 86 Z " /><path fill="rgb(135,141,149)" stroke="rgb(135,141,149)" stroke-width="1" opacity="1" d="M 200.5 89 L 201 102.5 L 200 102.5 L 200.5 89 Z " /><path fill="rgb(135,141,149)" stroke="rgb(135,141,149)" stroke-width="1" opacity="1" d="M 106.5 91 L 107 104.5 L 106 104.5 L 106.5 91 Z " /><path fill="rgb(135,141,149)" stroke="rgb(135,141,149)" stroke-width="1" opacity="1" d="M 123.5 94 L 177 94.5 L 123.5 95 L 123.5 94 Z " /><path fill="rgb(135,141,149)" stroke="rgb(135,141,149)" stroke-width="1" opacity="1" d="M 178.5 95 L 179.5 97 L 178.5 95 Z " /><path fill="rgb(135,141,149)" stroke="rgb(135,141,149)" stroke-width="1" opacity="1" d="M 120.5 100 L 121.5 102 L 120.5 100 Z " /><path fill="rgb(135,141,149)" stroke="rgb(135,141,149)" stroke-width="1" opacity="1" d="M 179.5 100 L 178.5 102 L 177 101.5 L 179.5 100 Z " /><path fill="rgb(135,141,149)" stroke="rgb(135,141,149)" stroke-width="1" opacity="1" d="M 99.5 101 L 100 110 L 98 109.5 L 99.5 101 Z " /><path fill="rgb(135,141,149)" stroke="rgb(135,141,149)" stroke-width="1" opacity="1" d="M 73.5 106 L 77 106.5 L 73.5 107 L 73.5 106 Z " /><path fill="rgb(135,141,149)" stroke="rgb(135,141,149)" stroke-width="1" opacity="1" d="M 89.5 106 L 92 106.5 L 89.5 107 L 89.5 106 Z " /><path fill="rgb(135,141,149)" stroke="rgb(135,141,149)" stroke-width="1" opacity="1" d="M 192.5 106 L 193 118.5 L 192 118.5 L 192.5 106 Z " /><path fill="rgb(135,141,149)" stroke="rgb(135,141,149)" stroke-width="1" opacity="1" d="M 215.5 106 L 219 106.5 L 215.5 107 L 215.5 106 Z " /><path fill="rgb(135,141,149)" stroke="rgb(135,141,149)" stroke-width="1" opacity="1" d="M 70.5 107 L 72 107.5 L 66.5 111 L 68.5 108 L 70.5 107 Z " /><path fill="rgb(135,141,149)" stroke="rgb(135,141,149)" stroke-width="1" opacity="1" d="M 220.5 107 L 223 108.5 L 221.5 108 L 220.5 107 Z " /><path fill="rgb(135,141,149)" stroke="rgb(135,141,149)" stroke-width="1" opacity="1" d="M 224.5 109 L 225.5 111 L 224.5 109 Z " /><path fill="rgb(135,141,149)" stroke="rgb(135,141,149)" stroke-width="1" opacity="1" d="M 128.5 110 L 128 111.5 L 127.5 113 L 127 111.5 L 128.5 110 Z " /><path fill="rgb(135,141,149)" stroke="rgb(135,141,149)" stroke-width="1" opacity="1" d="M 170.5 110 L 171.5 112 L 170.5 110 Z " /><path fill="rgb(135,141,149)" stroke="rgb(135,141,149)" stroke-width="1" opacity="1" d="M 76.5 113 L 91 113.5 L 76.5 114 L 76.5 113 Z " /><path fill="rgb(135,141,149)" stroke="rgb(135,141,149)" stroke-width="1" opacity="1" d="M 200.5 113 L 216 113.5 L 200.5 114 L 200.5 113 Z " /><path fill="rgb(135,141,149)" stroke="rgb(135,141,149)" stroke-width="1" opacity="1" d="M 228.5 113 L 229.5 115 L 228.5 113 Z " /><path fill="rgb(135,141,149)" stroke="rgb(135,141,149)" stroke-width="1" opacity="1" d="M 73.5 114 L 75 114.5 L 68.5 119 L 71.5 115 L 73.5 114 Z " /><path fill="rgb(135,141,149)" stroke="rgb(135,141,149)" stroke-width="1" opacity="1" d="M 127.5 114 L 129 116.5 L 127 115.5 L 127.5 114 Z " /><path fill="rgb(135,141,149)" stroke="rgb(135,141,149)" stroke-width="1" opacity="1" d="M 217.5 114 L 220 115.5 L 218.5 115 L 217.5 114 Z " /><path fill="rgb(135,141,149)" stroke="rgb(135,141,149)" stroke-width="1" opacity="1" d="M 94.5 115 L 98.5 120 L 94.5 115 Z " /><path fill="rgb(135,141,149)" stroke="rgb(135,141,149)" stroke-width="1" opacity="1" d="M 199.5 116 L 200 127.5 L 199 127.5 L 199.5 116 Z " /><path fill="rgb(135,141,149)" stroke="rgb(135,141,149)" stroke-width="1" opacity="1" d="M 221.5 116 L 223.5 119 L 221.5 116 Z " /><path fill="rgb(135,141,149)" stroke="rgb(135,141,149)" stroke-width="1" opacity="1" d="M 230.5 116 L 231.5 118 L 230.5 116 Z " /><path fill="rgb(135,141,149)" stroke="rgb(135,141,149)" stroke-width="1" opacity="1" d="M 107.5 118 L 108 120.5 L 107 120.5 L 107.5 118 Z " /><path fill="rgb(135,141,149)" stroke="rgb(135,141,149)" stroke-width="1" opacity="1" d="M 198.5 130 L 199 131.5 L 197 132.5 L 198.5 130 Z " /><path fill="rgb(135,141,149)" stroke="rgb(135,141,149)" stroke-width="1" opacity="1" d="M 142.5 136 L 143 164.5 L 142 164.5 L 142.5 136 Z " /><path fill="rgb(135,141,149)" stroke="rgb(135,141,149)" stroke-width="1" opacity="1" d="M 161.5 136 L 162 138.5 L 161 138.5 L 161.5 136 Z " /><path fill="rgb(135,141,149)" stroke="rgb(135,141,149)" stroke-width="1" opacity="1" d="M 149.5 137 L 150 162.5 L 151 164.5 L 149.5 170 L 149.5 137 Z " /><path fill="rgb(135,141,149)" stroke="rgb(135,141,149)" stroke-width="1" opacity="1" d="M 163.5 142 L 166.5 146 L 163.5 142 Z " /><path fill="rgb(135,141,149)" stroke="rgb(135,141,149)" stroke-width="1" opacity="1" d="M 223.5 142 L 220.5 146 L 223.5 142 Z " /><path fill="rgb(135,141,149)" stroke="rgb(135,141,149)" stroke-width="1" opacity="1" d="M 156.5 145 L 157.5 147 L 156.5 145 Z " /><path fill="rgb(135,141,149)" stroke="rgb(135,141,149)" stroke-width="1" opacity="1" d="M 171.5 147 L 180 147.5 L 171.5 148 L 171.5 147 Z " /><path fill="rgb(135,141,149)" stroke="rgb(135,141,149)" stroke-width="1" opacity="1" d="M 211.5 147 L 216 147.5 L 211.5 148 L 211.5 147 Z " /><path fill="rgb(135,141,149)" stroke="rgb(135,141,149)" stroke-width="1" opacity="1" d="M 159.5 149 L 160.5 151 L 159.5 149 Z " /><path fill="rgb(135,141,149)" stroke="rgb(135,141,149)" stroke-width="1" opacity="1" d="M 158.5 151 L 153.5 157 L 158.5 151 Z " /><path fill="rgb(135,141,149)" stroke="rgb(135,141,149)" stroke-width="1" opacity="1" d="M 167.5 155 L 181 155.5 L 167.5 156 L 167.5 155 Z " /><path fill="rgb(135,141,149)" stroke="rgb(135,141,149)" stroke-width="1" opacity="1" d="M 210.5 155 L 224 155.5 L 210.5 156 L 210.5 155 Z " /><path fill="rgb(135,141,149)" stroke="rgb(135,141,149)" stroke-width="1" opacity="1" d="M 164.5 156 L 166 156.5 L 163.5 158 L 164.5 156 Z " /><path fill="rgb(135,141,149)" stroke="rgb(135,141,149)" stroke-width="1" opacity="1" d="M 206.5 156 L 208 156.5 L 201.5 161 L 204.5 157 L 206.5 156 Z " /><path fill="rgb(135,141,149)" stroke="rgb(135,141,149)" stroke-width="1" opacity="1" d="M 161.5 158 L 160.5 160 L 161.5 158 Z " /><path fill="rgb(135,141,149)" stroke="rgb(135,141,149)" stroke-width="1" opacity="1" d="M 187.5 158 L 188.5 160 L 187.5 158 Z " /><path fill="rgb(135,141,149)" stroke="rgb(135,141,149)" stroke-width="1" opacity="1" d="M 189.5 161 L 191 163.5 L 190 163.5 L 189.5 161 Z " /><path fill="rgb(135,141,149)" stroke="rgb(135,141,149)" stroke-width="1" opacity="1" d="M 199.5 164 L 200 210.5 L 199 210.5 L 199.5 164 Z " /><path fill="rgb(135,141,149)" stroke="rgb(135,141,149)" stroke-width="1" opacity="1" d="M 157.5 165 L 158 198.5 L 157 198.5 L 157.5 165 Z " /><path fill="rgb(135,141,149)" stroke="rgb(135,141,149)" stroke-width="1" opacity="1" d="M 191.5 165 L 192 210.5 L 191 210.5 L 191.5 165 Z " /><path fill="rgb(135,141,149)" stroke="rgb(135,141,149)" stroke-width="1" opacity="1" d="M 233.5 167 L 234 207.5 L 233 207.5 L 233.5 167 Z " /><path fill="rgb(135,141,149)" stroke="rgb(135,141,149)" stroke-width="1" opacity="1" d="M 108.5 169 L 110 171.5 L 108 170.5 L 108.5 169 Z " /><path fill="rgb(135,141,149)" stroke="rgb(135,141,149)" stroke-width="1" opacity="1" d="M 98.5 172 L 95.5 176 L 98.5 172 Z " /><path fill="rgb(135,141,149)" stroke="rgb(135,141,149)" stroke-width="1" opacity="1" d="M 110.5 173 L 112.5 176 L 110.5 173 Z " /><path fill="rgb(135,141,149)" stroke="rgb(135,141,149)" stroke-width="1" opacity="1" d="M 139.5 173 L 137.5 176 L 139.5 173 Z " /><path fill="rgb(135,141,149)" stroke="rgb(135,141,149)" stroke-width="1" opacity="1" d="M 69.5 174 L 70.5 176 L 69.5 174 Z " /><path fill="rgb(135,141,149)" stroke="rgb(135,141,149)" stroke-width="1" opacity="1" d="M 93.5 176 L 92.5 178 L 91 177.5 L 93.5 176 Z " /><path fill="rgb(135,141,149)" stroke="rgb(135,141,149)" stroke-width="1" opacity="1" d="M 146.5 176 L 145 178.5 L 144.5 180 L 144 178.5 L 146.5 176 Z " /><path fill="rgb(135,141,149)" stroke="rgb(135,141,149)" stroke-width="1" opacity="1" d="M 103.5 177 Q 105.8 176.3 105 178.5 L 103.5 177 Z " /><path fill="rgb(135,141,149)" stroke="rgb(135,141,149)" stroke-width="1" opacity="1" d="M 78.5 178 L 88 178.5 L 78.5 179 L 78.5 178 Z " /><path fill="rgb(135,141,149)" stroke="rgb(135,141,149)" stroke-width="1" opacity="1" d="M 146.5 180 L 147.5 182 L 146.5 180 Z " /><path fill="rgb(135,141,149)" stroke="rgb(135,141,149)" stroke-width="1" opacity="1" d="M 75.5 185 Q 82.5 183.5 82 186.5 L 79.5 190 L 80 188.5 L 81 186.5 L 75.5 186 L 75.5 185 Z " /><path fill="rgb(135,141,149)" stroke="rgb(135,141,149)" stroke-width="1" opacity="1" d="M 97.5 185 L 116 185.5 L 97.5 186 L 97.5 185 Z " /><path fill="rgb(135,141,149)" stroke="rgb(135,141,149)" stroke-width="1" opacity="1" d="M 143.5 187 L 144.5 189 L 143.5 187 Z " /><path fill="rgb(135,141,149)" stroke="rgb(135,141,149)" stroke-width="1" opacity="1" d="M 87.5 191 L 86.5 193 L 87.5 191 Z " /><path fill="rgb(135,141,149)" stroke="rgb(135,141,149)" stroke-width="1" opacity="1" d="M 147.5 191 L 148.5 193 L 147.5 191 Z " /><path fill="rgb(135,141,149)" stroke="rgb(135,141,149)" stroke-width="1" opacity="1" d="M 149.5 195 L 150 210.5 L 149 210.5 L 149.5 195 Z " /><path fill="rgb(135,141,149)" stroke="rgb(135,141,149)" stroke-width="1" opacity="1" d="M 77.5 197 L 78 207.5 L 77 207.5 L 77.5 197 Z " /><path fill="rgb(135,141,149)" stroke="rgb(135,141,149)" stroke-width="1" opacity="1" d="M 157.5 208 L 158 210.5 L 157 210.5 L 157.5 208 Z " /><path fill="rgb(135,141,149)" stroke="rgb(135,141,149)" stroke-width="1" opacity="1" d="M 147.5 214 L 146.5 216 L 147.5 214 Z " /><path fill="rgb(135,141,149)" stroke="rgb(135,141,149)" stroke-width="1" opacity="1" d="M 159.5 214 L 160.5 216 L 159.5 214 Z " /><path fill="rgb(135,141,149)" stroke="rgb(135,141,149)" stroke-width="1" opacity="1" d="M 189.5 214 L 185.5 219 L 182.5 220 L 182.5 219 L 189.5 214 Z " /><path fill="rgb(135,141,149)" stroke="rgb(135,141,149)" stroke-width="1" opacity="1" d="M 201.5 214 L 202.5 216 L 201.5 214 Z " /><path fill="rgb(135,141,149)" stroke="rgb(135,141,149)" stroke-width="1" opacity="1" d="M 231.5 214 L 228.5 218 L 231.5 214 Z " /><path fill="rgb(135,141,149)" stroke="rgb(135,141,149)" stroke-width="1" opacity="1" d="M 90.5 217 L 91.5 219 L 90.5 217 Z " /><path fill="rgb(135,141,149)" stroke="rgb(135,141,149)" stroke-width="1" opacity="1" d="M 144.5 217 L 143.5 219 L 144.5 217 Z " /><path fill="rgb(135,141,149)" stroke="rgb(135,141,149)" stroke-width="1" opacity="1" d="M 162.5 217 L 163.5 219 L 162.5 217 Z " /><path fill="rgb(135,141,149)" stroke="rgb(135,141,149)" stroke-width="1" opacity="1" d="M 204.5 217 L 205.5 219 L 204.5 217 Z " /><path fill="rgb(135,141,149)" stroke="rgb(135,141,149)" stroke-width="1" opacity="1" d="M 226.5 218 L 225.5 220 L 224 219.5 L 226.5 218 Z " /><path fill="rgb(135,141,149)" stroke="rgb(135,141,149)" stroke-width="1" opacity="1" d="M 81.5 219 L 82.5 221 L 81.5 219 Z " /><path fill="rgb(135,141,149)" stroke="rgb(135,141,149)" stroke-width="1" opacity="1" d="M 153.5 219 L 156.5 223 L 153.5 220 L 150 222.5 L 153.5 219 Z " /><path fill="rgb(135,141,149)" stroke="rgb(135,141,149)" stroke-width="1" opacity="1" d="M 233.5 223 L 234 260.5 L 233 260.5 L 232 254.5 L 233 253.5 L 233 236.5 L 232 234.5 L 233 233.5 L 233.5 223 Z " /><path fill="rgb(135,141,149)" stroke="rgb(135,141,149)" stroke-width="1" opacity="1" d="M 77.5 224 L 74.5 228 L 77.5 224 Z " /><path fill="rgb(135,141,149)" stroke="rgb(135,141,149)" stroke-width="1" opacity="1" d="M 159.5 224 L 161 225.5 L 157.5 229 L 160 225.5 L 159.5 224 Z " /><path fill="rgb(135,141,149)" stroke="rgb(135,141,149)" stroke-width="1" opacity="1" d="M 145.5 225 L 144.5 227 L 145.5 225 Z " /><path fill="rgb(135,141,149)" stroke="rgb(135,141,149)" stroke-width="1" opacity="1" d="M 88.5 227 L 93 227.5 L 88.5 228 L 88.5 227 Z " /><path fill="rgb(135,141,149)" stroke="rgb(135,141,149)" stroke-width="1" opacity="1" d="M 183.5 227 L 207 227.5 L 183.5 228 L 183.5 227 Z " /><path fill="rgb(135,141,149)" stroke="rgb(135,141,149)" stroke-width="1" opacity="1" d="M 228.5 227 L 229.5 229 L 228.5 227 Z " /><path fill="rgb(135,141,149)" stroke="rgb(135,141,149)" stroke-width="1" opacity="1" d="M 133.5 228 L 136 229.5 L 134.5 229 L 133.5 228 Z " /><path fill="rgb(135,141,149)" stroke="rgb(135,141,149)" stroke-width="1" opacity="1" d="M 145.5 228 L 146.5 230 L 145.5 228 Z " /><path fill="rgb(135,141,149)" stroke="rgb(135,141,149)" stroke-width="1" opacity="1" d="M 83.5 229 L 82.5 231 L 83.5 229 Z " /><path fill="rgb(135,141,149)" stroke="rgb(135,141,149)" stroke-width="1" opacity="1" d="M 137.5 230 L 140.5 234 L 137.5 230 Z " /><path fill="rgb(135,141,149)" stroke="rgb(135,141,149)" stroke-width="1" opacity="1" d="M 156.5 230 L 156 231.5 L 155.5 233 L 155 231.5 L 156.5 230 Z " /><path fill="rgb(135,141,149)" stroke="rgb(135,141,149)" stroke-width="1" opacity="1" d="M 165.5 230 L 164.5 232 L 165.5 230 Z " /><path fill="rgb(135,141,149)" stroke="rgb(135,141,149)" stroke-width="1" opacity="1" d="M 221.5 230 L 223.5 233 L 221.5 230 Z " /><path fill="rgb(135,141,149)" stroke="rgb(135,141,149)" stroke-width="1" opacity="1" d="M 80.5 232 L 79.5 234 L 80.5 232 Z " /><path fill="rgb(135,141,149)" stroke="rgb(135,141,149)" stroke-width="1" opacity="1" d="M 163.5 233 L 163 234.5 L 162.5 236 L 162 234.5 L 163.5 233 Z " /><path fill="rgb(135,141,149)" stroke="rgb(135,141,149)" stroke-width="1" opacity="1" d="M 70.5 235 L 71 237.5 L 70 237.5 L 70.5 235 Z " /><path fill="rgb(135,141,149)" stroke="rgb(135,141,149)" stroke-width="1" opacity="1" d="M 149.5 237 L 150 253.5 L 149 253.5 L 149.5 237 Z " /><path fill="rgb(135,141,149)" stroke="rgb(135,141,149)" stroke-width="1" opacity="1" d="M 77.5 238 L 78 251.5 L 77 251.5 L 77.5 238 Z " /><path fill="rgb(135,141,149)" stroke="rgb(135,141,149)" stroke-width="1" opacity="1" d="M 142.5 240 L 143 249.5 L 142 249.5 L 142.5 240 Z " /><path fill="rgb(135,141,149)" stroke="rgb(135,141,149)" stroke-width="1" opacity="1" d="M 153.5 240 L 154 248.5 L 153 248.5 L 153.5 240 Z " /><path fill="rgb(135,141,149)" stroke="rgb(135,141,149)" stroke-width="1" opacity="1" d="M 162.5 255 L 166.5 260 L 162.5 255 Z " /><path fill="rgb(135,141,149)" stroke="rgb(135,141,149)" stroke-width="1" opacity="1" d="M 79.5 256 L 82.5 260 L 79.5 256 Z " /><path fill="rgb(135,141,149)" stroke="rgb(135,141,149)" stroke-width="1" opacity="1" d="M 223.5 256 L 222.5 258 L 223.5 256 Z " /><path fill="rgb(135,141,149)" stroke="rgb(135,141,149)" stroke-width="1" opacity="1" d="M 220.5 259 L 219.5 261 L 220.5 259 Z " /><path fill="rgb(135,141,149)" stroke="rgb(135,141,149)" stroke-width="1" opacity="1" d="M 73.5 260 L 74.5 262 L 73.5 260 Z " /><path fill="rgb(135,141,149)" stroke="rgb(135,141,149)" stroke-width="1" opacity="1" d="M 146.5 260 L 145.5 262 L 146.5 260 Z " /><path fill="rgb(135,141,149)" stroke="rgb(135,141,149)" stroke-width="1" opacity="1" d="M 59.5 264 L 60.5 266 L 59.5 264 Z " /><path fill="rgb(135,141,149)" stroke="rgb(135,141,149)" stroke-width="1" opacity="1" d="M 239.5 265 L 237.5 268 L 239.5 265 Z " /><path fill="rgb(135,141,149)" stroke="rgb(135,141,149)" stroke-width="1" opacity="1" d="M 62.5 267 L 63.5 269 L 62.5 267 Z " /><path fill="rgb(135,141,149)" stroke="rgb(135,141,149)" stroke-width="1" opacity="1" d="M 66.5 269 L 233 269.5 L 66.5 270 L 66.5 269 Z " /><path fill="rgb(226,228,230)" stroke="rgb(226,228,230)" stroke-width="1" opacity="1" d="M 50.5 30 L 51 48.5 L 50 48.5 L 50.5 30 Z " /><path fill="rgb(226,228,230)" stroke="rgb(226,228,230)" stroke-width="1" opacity="1" d="M 96.5 34 L 97 39.5 L 96 39.5 L 96.5 34 Z " /><path fill="rgb(226,228,230)" stroke="rgb(226,228,230)" stroke-width="1" opacity="1" d="M 104.5 34 L 105 36.5 L 104 36.5 L 104.5 34 Z " /><path fill="rgb(226,228,230)" stroke="rgb(226,228,230)" stroke-width="1" opacity="1" d="M 194.5 46 L 195 52.5 L 194 52.5 L 194.5 46 Z " /><path fill="rgb(226,228,230)" stroke="rgb(226,228,230)" stroke-width="1" opacity="1" d="M 105.5 47 L 106 63.5 L 105 63.5 L 105.5 47 Z " /><path fill="rgb(226,228,230)" stroke="rgb(226,228,230)" stroke-width="1" opacity="1" d="M 184.5 48 L 185 80.5 L 184 80.5 L 184.5 48 Z " /><path fill="rgb(226,228,230)" stroke="rgb(226,228,230)" stroke-width="1" opacity="1" d="M 123.5 49 L 124 78.5 L 123 78.5 L 123.5 49 Z " /><path fill="rgb(226,228,230)" stroke="rgb(226,228,230)" stroke-width="1" opacity="1" d="M 66.5 53 L 67 68.5 L 66 68.5 L 66.5 53 Z " /><path fill="rgb(226,228,230)" stroke="rgb(226,228,230)" stroke-width="1" opacity="1" d="M 202.5 53 L 203 62.5 L 202 62.5 L 202.5 53 Z " /><path fill="rgb(226,228,230)" stroke="rgb(226,228,230)" stroke-width="1" opacity="1" d="M 241.5 53 L 242 261.5 L 241 261.5 L 241.5 53 Z " /><path fill="rgb(226,228,230)" stroke="rgb(226,228,230)" stroke-width="1" opacity="1" d="M 97.5 60 L 98 66.5 L 97 66.5 L 97.5 60 Z " /><path fill="rgb(226,228,230)" stroke="rgb(226,228,230)" stroke-width="1" opacity="1" d="M 131.5 66 L 132.5 68 L 131.5 66 Z " /><path fill="rgb(226,228,230)" stroke="rgb(226,228,230)" stroke-width="1" opacity="1" d="M 74.5 71 L 98 71.5 L 74.5 72 L 74.5 71 Z " /><path fill="rgb(226,228,230)" stroke="rgb(226,228,230)" stroke-width="1" opacity="1" d="M 202.5 71 L 226 71.5 L 202.5 72 L 202.5 71 Z " /><path fill="rgb(226,228,230)" stroke="rgb(226,228,230)" stroke-width="1" opacity="1" d="M 106.5 73 L 107 90.5 L 106 90.5 L 106.5 73 Z " /><path fill="rgb(226,228,230)" stroke="rgb(226,228,230)" stroke-width="1" opacity="1" d="M 193.5 76 L 194 78.5 L 193 78.5 L 193.5 76 Z " /><path fill="rgb(226,228,230)" stroke="rgb(226,228,230)" stroke-width="1" opacity="1" d="M 66.5 78 L 67 109.5 L 66 109.5 L 66.5 78 Z " /><path fill="rgb(226,228,230)" stroke="rgb(226,228,230)" stroke-width="1" opacity="1" d="M 72.5 79 L 98 79.5 L 72.5 80 L 72.5 79 Z " /><path fill="rgb(226,228,230)" stroke="rgb(226,228,230)" stroke-width="1" opacity="1" d="M 202.5 79 L 228 79.5 L 202 80 L 201.5 89 L 201 80.5 L 202.5 79 Z " /><path fill="rgb(226,228,230)" stroke="rgb(226,228,230)" stroke-width="1" opacity="1" d="M 182.5 84 L 181.5 86 L 182.5 84 Z " /><path fill="rgb(226,228,230)" stroke="rgb(226,228,230)" stroke-width="1" opacity="1" d="M 98.5 87 L 99 93.5 L 98 93.5 L 98.5 87 Z " /><path fill="rgb(226,228,230)" stroke="rgb(226,228,230)" stroke-width="1" opacity="1" d="M 180.5 97 L 181 99.5 L 180 99.5 L 180.5 97 Z " /><path fill="rgb(226,228,230)" stroke="rgb(226,228,230)" stroke-width="1" opacity="1" d="M 192.5 100 L 193 105.5 L 192 105.5 L 192.5 100 Z " /><path fill="rgb(226,228,230)" stroke="rgb(226,228,230)" stroke-width="1" opacity="1" d="M 200.5 103 L 201 105.5 L 200 105.5 L 200.5 103 Z " /><path fill="rgb(226,228,230)" stroke="rgb(226,228,230)" stroke-width="1" opacity="1" d="M 107.5 105 L 108 117.5 L 107 117.5 L 107.5 105 Z " /><path fill="rgb(226,228,230)" stroke="rgb(226,228,230)" stroke-width="1" opacity="1" d="M 130.5 109 L 169 109.5 L 130.5 110 L 130.5 109 Z " /><path fill="rgb(226,228,230)" stroke="rgb(226,228,230)" stroke-width="1" opacity="1" d="M 227.5 111 L 228.5 113 L 227.5 111 Z " /><path fill="rgb(226,228,230)" stroke="rgb(226,228,230)" stroke-width="1" opacity="1" d="M 172.5 115 L 171.5 117 L 172.5 115 Z " /><path fill="rgb(226,228,230)" stroke="rgb(226,228,230)" stroke-width="1" opacity="1" d="M 130.5 117 L 170 117.5 L 130.5 118 L 130.5 117 Z " /><path fill="rgb(226,228,230)" stroke="rgb(226,228,230)" stroke-width="1" opacity="1" d="M 66.5 123 L 67 167.5 L 66 167.5 L 66.5 123 Z " /><path fill="rgb(226,228,230)" stroke="rgb(226,228,230)" stroke-width="1" opacity="1" d="M 225.5 123 L 226 125.5 L 225 125.5 L 225.5 123 Z " /><path fill="rgb(226,228,230)" stroke="rgb(226,228,230)" stroke-width="1" opacity="1" d="M 108.5 124 L 109 128 L 145 128.5 L 109.5 129 Q 106.8 127.8 108.5 124 Z " /><path fill="rgb(226,228,230)" stroke="rgb(226,228,230)" stroke-width="1" opacity="1" d="M 146.5 128 L 157 128.5 L 146.5 129 L 146.5 128 Z " /><path fill="rgb(226,228,230)" stroke="rgb(226,228,230)" stroke-width="1" opacity="1" d="M 158.5 128 L 191 128.5 L 158.5 129 L 158.5 128 Z " /><path fill="rgb(226,228,230)" stroke="rgb(226,228,230)" stroke-width="1" opacity="1" d="M 108 136 L 142 136.5 L 109 137 L 108.5 169 L 108 136 Z " /><path fill="rgb(226,228,230)" stroke="rgb(226,228,230)" stroke-width="1" opacity="1" d="M 150.5 136 L 154 137.5 L 152.5 137 Q 149.5 137.5 150.5 136 Z " /><path fill="rgb(226,228,230)" stroke="rgb(226,228,230)" stroke-width="1" opacity="1" d="M 162.5 136 L 192 136.5 L 162.5 137 L 162.5 136 Z " /><path fill="rgb(226,228,230)" stroke="rgb(226,228,230)" stroke-width="1" opacity="1" d="M 230.5 146 L 229.5 148 L 230.5 146 Z " /><path fill="rgb(226,228,230)" stroke="rgb(226,228,230)" stroke-width="1" opacity="1" d="M 157.5 147 L 158.5 149 L 157.5 147 Z " /><path fill="rgb(226,228,230)" stroke="rgb(226,228,230)" stroke-width="1" opacity="1" d="M 180.5 147 L 211 147.5 L 180.5 148 L 180.5 147 Z " /><path fill="rgb(226,228,230)" stroke="rgb(226,228,230)" stroke-width="1" opacity="1" d="M 227.5 157 L 228.5 159 L 227.5 157 Z " /><path fill="rgb(226,228,230)" stroke="rgb(226,228,230)" stroke-width="1" opacity="1" d="M 160.5 160 L 159.5 162 L 160.5 160 Z " /><path fill="rgb(226,228,230)" stroke="rgb(226,228,230)" stroke-width="1" opacity="1" d="M 149.5 170 L 150 182 L 148 181.5 Q 150.5 180 149 174.5 L 149 172.5 L 149.5 170 Z " /><path fill="rgb(226,228,230)" stroke="rgb(226,228,230)" stroke-width="1" opacity="1" d="M 68.5 172 L 69.5 174 L 68.5 172 Z " /><path fill="rgb(226,228,230)" stroke="rgb(226,228,230)" stroke-width="1" opacity="1" d="M 66 182 L 68 182.5 L 67 183.5 L 66.5 261 L 66 182 Z " /><path fill="rgb(226,228,230)" stroke="rgb(226,228,230)" stroke-width="1" opacity="1" d="M 145.5 189 L 146.5 191 L 145.5 189 Z " /><path fill="rgb(226,228,230)" stroke="rgb(226,228,230)" stroke-width="1" opacity="1" d="M 85.5 196 L 86 209.5 L 85 209.5 L 85.5 196 Z " /><path fill="rgb(226,228,230)" stroke="rgb(226,228,230)" stroke-width="1" opacity="1" d="M 77.5 208 L 78 210.5 L 77 210.5 L 77.5 208 Z " /><path fill="rgb(226,228,230)" stroke="rgb(226,228,230)" stroke-width="1" opacity="1" d="M 87.5 214 L 89.5 217 L 87.5 214 Z " /><path fill="rgb(226,228,230)" stroke="rgb(226,228,230)" stroke-width="1" opacity="1" d="M 149.5 223 L 148.5 225 L 149.5 223 Z " /><path fill="rgb(226,228,230)" stroke="rgb(226,228,230)" stroke-width="1" opacity="1" d="M 157.5 223 L 158.5 225 L 157.5 223 Z " /><path fill="rgb(226,228,230)" stroke="rgb(226,228,230)" stroke-width="1" opacity="1" d="M 225.5 237 L 226 239.5 L 225 239.5 L 225.5 237 Z " /><path fill="rgb(226,228,230)" stroke="rgb(226,228,230)" stroke-width="1" opacity="1" d="M 161.5 239 L 162 250.5 L 161 250.5 L 161.5 239 Z " /><path fill="rgb(226,228,230)" stroke="rgb(226,228,230)" stroke-width="1" opacity="1" d="M 69.5 240 L 70 248.5 L 69 248.5 L 69.5 240 Z " /><path fill="rgb(226,228,230)" stroke="rgb(226,228,230)" stroke-width="1" opacity="1" d="M 153.5 249 L 154 251.5 L 153 251.5 L 153.5 249 Z " /><path fill="rgb(226,228,230)" stroke="rgb(226,228,230)" stroke-width="1" opacity="1" d="M 130.5 261 L 133 261.5 L 130.5 262 L 130.5 261 Z " /><path fill="rgb(226,228,230)" stroke="rgb(226,228,230)" stroke-width="1" opacity="1" d="M 60.5 266 L 61.5 268 L 60.5 266 Z " /><path fill="rgb(254,254,254)" stroke="rgb(254,254,254)" stroke-width="1" opacity="1" d="M 247.5 26 L 250 28.5 L 250 50.5 L 247 52.5 L 249 50.5 L 249 28.5 L 247.5 26 Z " /><path fill="rgb(254,254,254)" stroke="rgb(254,254,254)" stroke-width="1" opacity="1" d="M 59.5 34 L 60 44.5 L 59 44.5 L 59.5 34 Z " /><path fill="rgb(254,254,254)" stroke="rgb(254,254,254)" stroke-width="1" opacity="1" d="M 105.5 34 L 106 46.5 L 105 46.5 L 105.5 34 Z " /><path fill="rgb(254,254,254)" stroke="rgb(254,254,254)" stroke-width="1" opacity="1" d="M 203.5 36 L 204 44.5 L 203 44.5 L 203.5 36 Z " /><path fill="rgb(254,254,254)" stroke="rgb(254,254,254)" stroke-width="1" opacity="1" d="M 180.5 41 L 181.5 43 L 180.5 41 Z " /><path fill="rgb(254,254,254)" stroke="rgb(254,254,254)" stroke-width="1" opacity="1" d="M 183.5 44 L 185 47.5 L 184 47.5 L 183.5 44 Z " /><path fill="rgb(254,254,254)" stroke="rgb(254,254,254)" stroke-width="1" opacity="1" d="M 124.5 49 L 125 78.5 L 124 78.5 L 124.5 49 Z " /><path fill="rgb(254,254,254)" stroke="rgb(254,254,254)" stroke-width="1" opacity="1" d="M 203.5 53 L 204 55.5 L 203 55.5 L 203.5 53 Z " /><path fill="rgb(254,254,254)" stroke="rgb(254,254,254)" stroke-width="1" opacity="1" d="M 106.5 57 L 107 72.5 L 106 72.5 L 106.5 57 Z " /><path fill="rgb(254,254,254)" stroke="rgb(254,254,254)" stroke-width="1" opacity="1" d="M 167.5 60 Q 170.8 60.8 170 65.5 L 167 67.5 Q 169.8 66.8 169 62.5 L 167.5 60 Z " /><path fill="rgb(254,254,254)" stroke="rgb(254,254,254)" stroke-width="1" opacity="1" d="M 202.5 63 L 203 70.5 L 202 70.5 L 202.5 63 Z " /><path fill="rgb(254,254,254)" stroke="rgb(254,254,254)" stroke-width="1" opacity="1" d="M 202.5 80 L 203 82.5 L 202 82.5 L 202.5 80 Z " /><path fill="rgb(254,254,254)" stroke="rgb(254,254,254)" stroke-width="1" opacity="1" d="M 184.5 81 L 185 82.5 L 183 83.5 L 184.5 81 Z " /><path fill="rgb(254,254,254)" stroke="rgb(254,254,254)" stroke-width="1" opacity="1" d="M 107.5 84 L 108 104.5 L 107 104.5 L 107.5 84 Z " /><path fill="rgb(254,254,254)" stroke="rgb(254,254,254)" stroke-width="1" opacity="1" d="M 201.5 89 L 202 105.5 L 201 105.5 L 201.5 89 Z " /><path fill="rgb(254,254,254)" stroke="rgb(254,254,254)" stroke-width="1" opacity="1" d="M 178.5 94 L 180.5 97 L 178.5 94 Z " /><path fill="rgb(254,254,254)" stroke="rgb(254,254,254)" stroke-width="1" opacity="1" d="M 180.5 100 L 179.5 102 L 180.5 100 Z " /><path fill="rgb(254,254,254)" stroke="rgb(254,254,254)" stroke-width="1" opacity="1" d="M 222.5 107 L 223.5 109 L 222.5 107 Z " /><path fill="rgb(254,254,254)" stroke="rgb(254,254,254)" stroke-width="1" opacity="1" d="M 225.5 109 L 226.5 111 L 225.5 109 Z " /><path fill="rgb(254,254,254)" stroke="rgb(254,254,254)" stroke-width="1" opacity="1" d="M 172.5 110 L 174 114.5 L 173 114.5 L 172.5 110 Z " /><path fill="rgb(254,254,254)" stroke="rgb(254,254,254)" stroke-width="1" opacity="1" d="M 108.5 111 L 109 123.5 L 108 123.5 L 108.5 111 Z " /><path fill="rgb(254,254,254)" stroke="rgb(254,254,254)" stroke-width="1" opacity="1" d="M 228.5 111 L 233 117.5 L 231 116.5 L 228.5 111 Z " /><path fill="rgb(254,254,254)" stroke="rgb(254,254,254)" stroke-width="1" opacity="1" d="M 71.5 116 L 69.5 119 L 71.5 116 Z " /><path fill="rgb(254,254,254)" stroke="rgb(254,254,254)" stroke-width="1" opacity="1" d="M 200.5 116 L 201 128.5 L 200 128.5 L 200.5 116 Z " /><path fill="rgb(254,254,254)" stroke="rgb(254,254,254)" stroke-width="1" opacity="1" d="M 67.5 122 L 68 124.5 L 67 124.5 L 67.5 122 Z " /><path fill="rgb(254,254,254)" stroke="rgb(254,254,254)" stroke-width="1" opacity="1" d="M 199.5 130 L 200 131.5 L 198 132.5 L 199.5 130 Z " /><path fill="rgb(254,254,254)" stroke="rgb(254,254,254)" stroke-width="1" opacity="1" d="M 196.5 134 L 195.5 136 L 196.5 134 Z " /><path fill="rgb(254,254,254)" stroke="rgb(254,254,254)" stroke-width="1" opacity="1" d="M 150.5 137 L 151 161.5 L 150 161.5 L 150.5 137 Z " /><path fill="rgb(254,254,254)" stroke="rgb(254,254,254)" stroke-width="1" opacity="1" d="M 164.5 142 L 167.5 146 L 164.5 142 Z " /><path fill="rgb(254,254,254)" stroke="rgb(254,254,254)" stroke-width="1" opacity="1" d="M 230.5 147 L 231.5 151 Q 227 149 230.5 147 Z " /><path fill="rgb(254,254,254)" stroke="rgb(254,254,254)" stroke-width="1" opacity="1" d="M 162.5 158 L 161.5 160 L 162.5 158 Z " /><path fill="rgb(254,254,254)" stroke="rgb(254,254,254)" stroke-width="1" opacity="1" d="M 204.5 158 L 203 160.5 L 201 164.5 L 200.5 211 L 200 164.5 L 204.5 158 Z " /><path fill="rgb(254,254,254)" stroke="rgb(254,254,254)" stroke-width="1" opacity="1" d="M 160.5 161 L 160 162.5 L 159.5 164 L 159 162.5 L 160.5 161 Z " /><path fill="rgb(254,254,254)" stroke="rgb(254,254,254)" stroke-width="1" opacity="1" d="M 158.5 165 L 159 210.5 L 158 210.5 L 158.5 165 Z " /><path fill="rgb(254,254,254)" stroke="rgb(254,254,254)" stroke-width="1" opacity="1" d="M 67.5 167 L 68 169.5 L 67 169.5 L 67.5 167 Z " /><path fill="rgb(254,254,254)" stroke="rgb(254,254,254)" stroke-width="1" opacity="1" d="M 109.5 168 L 111 171.5 L 109 170.5 L 109.5 168 Z " /><path fill="rgb(254,254,254)" stroke="rgb(254,254,254)" stroke-width="1" opacity="1" d="M 68.5 171 L 69.5 173 L 68.5 171 Z " /><path fill="rgb(254,254,254)" stroke="rgb(254,254,254)" stroke-width="1" opacity="1" d="M 111.5 173 L 113.5 176 L 111.5 173 Z " /><path fill="rgb(254,254,254)" stroke="rgb(254,254,254)" stroke-width="1" opacity="1" d="M 72.5 175 L 73.5 177 L 72.5 175 Z " /><path fill="rgb(254,254,254)" stroke="rgb(254,254,254)" stroke-width="1" opacity="1" d="M 147.5 176 L 146 178.5 L 145.5 180 L 145 178.5 L 147.5 176 Z " /><path fill="rgb(254,254,254)" stroke="rgb(254,254,254)" stroke-width="1" opacity="1" d="M 92.5 187 L 91.5 189 L 92.5 187 Z " /><path fill="rgb(254,254,254)" stroke="rgb(254,254,254)" stroke-width="1" opacity="1" d="M 88.5 191 L 87.5 193 L 88.5 191 Z " /><path fill="rgb(254,254,254)" stroke="rgb(254,254,254)" stroke-width="1" opacity="1" d="M 86.5 194 L 87 197.5 L 86 197.5 L 86.5 194 Z " /><path fill="rgb(254,254,254)" stroke="rgb(254,254,254)" stroke-width="1" opacity="1" d="M 86.5 208 Q 87.3 215.7 93 218.5 L 87 213.5 L 86.5 208 Z " /><path fill="rgb(254,254,254)" stroke="rgb(254,254,254)" stroke-width="1" opacity="1" d="M 160.5 214 L 163.5 218 L 160.5 214 Z " /><path fill="rgb(254,254,254)" stroke="rgb(254,254,254)" stroke-width="1" opacity="1" d="M 202.5 214 L 205.5 218 L 202.5 214 Z " /><path fill="rgb(254,254,254)" stroke="rgb(254,254,254)" stroke-width="1" opacity="1" d="M 153.5 220 L 149.5 225 L 153.5 220 Z " /><path fill="rgb(254,254,254)" stroke="rgb(254,254,254)" stroke-width="1" opacity="1" d="M 230.5 225 L 230 226.5 L 233 232.5 L 232 232.5 L 229 226.5 L 230.5 225 Z " /><path fill="rgb(254,254,254)" stroke="rgb(254,254,254)" stroke-width="1" opacity="1" d="M 146.5 228 L 151 235.5 L 151 253.5 L 150 253.5 L 150 235.5 L 146.5 228 Z " /><path fill="rgb(254,254,254)" stroke="rgb(254,254,254)" stroke-width="1" opacity="1" d="M 168.5 229 L 167.5 231 L 168.5 229 Z " /><path fill="rgb(254,254,254)" stroke="rgb(254,254,254)" stroke-width="1" opacity="1" d="M 83.5 230 L 80.5 234 L 83.5 230 Z " /><path fill="rgb(254,254,254)" stroke="rgb(254,254,254)" stroke-width="1" opacity="1" d="M 164.5 233 L 164 234.5 L 163.5 236 L 163 234.5 L 164.5 233 Z " /><path fill="rgb(254,254,254)" stroke="rgb(254,254,254)" stroke-width="1" opacity="1" d="M 162.5 237 L 163 252.5 L 162 252.5 L 162.5 237 Z " /><path fill="rgb(254,254,254)" stroke="rgb(254,254,254)" stroke-width="1" opacity="1" d="M 78.5 238 L 79 251.5 L 78 251.5 L 78.5 238 Z " /><path fill="rgb(254,254,254)" stroke="rgb(254,254,254)" stroke-width="1" opacity="1" d="M 79.5 253 L 84 259.5 L 80 256.5 L 79.5 253 Z " /><path fill="rgb(254,254,254)" stroke="rgb(254,254,254)" stroke-width="1" opacity="1" d="M 163.5 254 L 168 259.5 L 163 255.5 L 163.5 254 Z " /><path fill="rgb(254,254,254)" stroke="rgb(254,254,254)" stroke-width="1" opacity="1" d="M 147.5 260 L 146.5 262 L 147.5 260 Z " /><path fill="rgb(254,254,254)" stroke="rgb(254,254,254)" stroke-width="1" opacity="1" d="M 240.5 265 L 237.5 269 L 240.5 265 Z " /><path fill="rgb(255,255,255)" stroke="rgb(255,255,255)" stroke-width="1" opacity="1" d="M 0 0 L 296 0 L 296 296 L 0 296 L 0 0 Z M 53 26 L 50 31 L 50 49 L 51 52 L 58 53 L 58 263 L 60 267 L 66 270 L 235 270 L 238 269 L 242 264 L 242 54 Q 242 52 248 53 L 250 51 L 250 29 L 248 26 L 53 26 Z " /><path fill="rgb(255,255,255)" stroke="rgb(255,255,255)" stroke-width="1" opacity="1" d="M 60 34 L 95.5 34 Q 96.6 34.1 96 39.5 L 97 45 L 60.5 45 L 60 44.5 L 60 34 Z " /><path fill="rgb(255,255,255)" stroke="rgb(255,255,255)" stroke-width="1" opacity="1" d="M 106 34 L 194.5 34 L 195 34.5 L 195 45.5 L 194 46.5 L 192 125.5 L 191 128 L 109.5 128 L 109 127.5 L 109 111.5 L 108 110.5 L 108 84.5 L 107 83.5 L 106 34 Z M 121 41 L 119 42 L 115 48 L 115 82 L 116 84 L 121 87 L 181 87 L 183 86 L 185 83 L 185 46 L 181 41 L 121 41 Z M 122 94 Q 118 95 119 100 L 122 102 L 180 102 L 182 99 L 181 97 L 179 94 L 122 94 Z M 131 109 L 129 110 Q 126 111 127 116 L 131 118 L 171 118 L 173 117 L 174 115 L 173 110 L 170 109 L 131 109 Z " /><path fill="rgb(255,255,255)" stroke="rgb(255,255,255)" stroke-width="1" opacity="1" d="M 204 34 L 240.5 34 L 241 34.5 L 241 45 L 204.5 45 L 204 44.5 L 204 34 Z " /><path fill="rgb(255,255,255)" stroke="rgb(255,255,255)" stroke-width="1" opacity="1" d="M 125 49 L 176 49 L 176 79 L 125 79 L 125 49 Z M 133 60 L 130 65 L 131 67 L 133 68 L 168 68 Q 171 67 170 63 L 168 60 L 133 60 Z " /><path fill="rgb(255,255,255)" stroke="rgb(255,255,255)" stroke-width="1" opacity="1" d="M 67 53 L 97 53 L 97 66.5 L 98 71 L 70.5 71 L 67 68.5 L 67 53 Z " /><path fill="rgb(255,255,255)" stroke="rgb(255,255,255)" stroke-width="1" opacity="1" d="M 204 53 L 233 53 L 233 68.5 L 229.5 71 L 203 71 L 203 56.5 L 204 53 Z " /><path fill="rgb(255,255,255)" stroke="rgb(255,255,255)" stroke-width="1" opacity="1" d="M 67 79 L 72.5 80 L 98 80 L 99 108 L 94.5 106 L 73.5 106 L 67.5 109 L 67 79 Z " /><path fill="rgb(255,255,255)" stroke="rgb(255,255,255)" stroke-width="1" opacity="1" d="M 229.5 79 L 233 79.5 L 233 116.5 L 232 116.5 L 228.5 111 L 219.5 106 L 202 106 L 202 83.5 L 203 80 L 228.5 80 L 229.5 79 Z " /><path fill="rgb(255,255,255)" stroke="rgb(255,255,255)" stroke-width="1" opacity="1" d="M 76.5 114 L 90.5 114 L 99 120.5 L 100 123.5 L 100 167.5 Q 98.8 173.3 94.5 176 L 90.5 178 L 77.5 178 L 70 173.5 L 67 166.5 L 67 125.5 Q 67.9 118.9 72.5 116 L 76.5 114 Z " /><path fill="rgb(255,255,255)" stroke="rgb(255,255,255)" stroke-width="1" opacity="1" d="M 201 114 L 216.5 114 L 223 118.5 L 226 126.5 L 226 134.5 L 224 141.5 L 219.5 146 L 217.5 147 L 170.5 147 L 164 141.5 L 163 137 L 192.5 137 L 200 131.5 L 201 128.5 L 201 114 Z " /><path fill="rgb(255,255,255)" stroke="rgb(255,255,255)" stroke-width="1" opacity="1" d="M 109 137 L 142 137 L 142 167.5 Q 140.8 173.3 136.5 176 Q 130.7 179.7 119.5 178 Q 113.8 176.8 111 172.5 L 109 167.5 L 109 137 Z " /><path fill="rgb(255,255,255)" stroke="rgb(255,255,255)" stroke-width="1" opacity="1" d="M 151 137 L 154 138.5 L 154 141.5 L 160 150.5 L 152 157.5 L 151.5 159 L 151 137 Z " /><path fill="rgb(255,255,255)" stroke="rgb(255,255,255)" stroke-width="1" opacity="1" d="M 232.5 144 L 233 150.5 L 230 148.5 L 232.5 144 Z " /><path fill="rgb(255,255,255)" stroke="rgb(255,255,255)" stroke-width="1" opacity="1" d="M 167.5 156 L 182.5 156 L 189 160.5 L 191 164.5 L 191 210.5 L 185.5 218 Q 180.1 221.6 169.5 220 Q 163 218.5 160 213.5 L 159 211.5 L 159 164.5 L 163.5 158 L 167.5 156 Z " /><path fill="rgb(255,255,255)" stroke="rgb(255,255,255)" stroke-width="1" opacity="1" d="M 209.5 156 L 224.5 156 L 230 159 L 233 164.5 L 233 210.5 L 227.5 218 Q 222.1 221.6 211.5 220 Q 205 218.5 202 213.5 L 201 211.5 L 201 164.5 L 205.5 158 L 209.5 156 Z " /><path fill="rgb(255,255,255)" stroke="rgb(255,255,255)" stroke-width="1" opacity="1" d="M 148.5 175 L 149 180.5 L 147.5 180 Q 145.3 180.8 146 178.5 L 148.5 175 Z " /><path fill="rgb(255,255,255)" stroke="rgb(255,255,255)" stroke-width="1" opacity="1" d="M 67 183 Q 71.8 186.6 81 186.5 Q 74.7 194.2 77 210.5 L 82 222 Q 75.9 222.8 73 228.5 Q 68.3 235.8 69 248.5 L 71 257.5 L 74 261.5 L 68.5 262 L 67 260.5 L 67 183 Z " /><path fill="rgb(255,255,255)" stroke="rgb(255,255,255)" stroke-width="1" opacity="1" d="M 96.5 186 L 139.5 186 Q 145.6 187.4 148 192.5 L 149 194.5 L 149 211.5 L 143.5 218 L 138.5 220 L 97.5 220 L 93.5 219 L 88 213.5 Q 84.9 208.1 86 198.5 L 87 193.5 L 90.5 189 L 96.5 186 Z " /><path fill="rgb(255,255,255)" stroke="rgb(255,255,255)" stroke-width="1" opacity="1" d="M 153.5 221 L 160 225.5 Q 150.8 232.8 153 251.5 L 157 262 L 147 261.5 L 151 253.5 L 151 235.5 L 146 226 Q 151 225.4 153.5 221 Z " /><path fill="rgb(255,255,255)" stroke="rgb(255,255,255)" stroke-width="1" opacity="1" d="M 231.5 225 Q 234.3 224.4 233 230.5 L 232 230.5 L 230 226.5 L 231.5 225 Z " /><path fill="rgb(255,255,255)" stroke="rgb(255,255,255)" stroke-width="1" opacity="1" d="M 88.5 228 L 132.5 228 L 140 233.5 Q 143.9 239.6 142 251.5 L 137.5 259 L 129.5 262 L 90.5 262 Q 83.9 261.1 81 256.5 L 79 252.5 L 79 236.5 L 84.5 230 L 88.5 228 Z " /><path fill="rgb(255,255,255)" stroke="rgb(255,255,255)" stroke-width="1" opacity="1" d="M 172.5 228 L 215.5 228 L 223 232.5 L 226 240.5 L 226 248.5 L 224 255.5 L 219.5 260 L 213.5 262 L 174.5 262 Q 167.1 260.9 164 255.5 L 163 253.5 L 163 236.5 L 166.5 231 L 172.5 228 Z " /><path fill="rgb(255,255,255)" stroke="rgb(255,255,255)" stroke-width="1" opacity="1" d="M 232.5 258 L 233 260.5 L 231 261.5 L 232.5 258 Z " /><path fill="rgb(70,79,90)" stroke="rgb(70,79,90)" stroke-width="1" opacity="1" d="M 51.5 28 L 52 49.5 L 51 49.5 L 51.5 28 Z " /><path fill="rgb(70,79,90)" stroke="rgb(70,79,90)" stroke-width="1" opacity="1" d="M 97.5 34 L 98 44.5 L 97 44.5 L 97.5 34 Z " /><path fill="rgb(70,79,90)" stroke="rgb(70,79,90)" stroke-width="1" opacity="1" d="M 241.5 34 L 242 44.5 L 241 44.5 L 241.5 34 Z " /><path fill="rgb(70,79,90)" stroke="rgb(70,79,90)" stroke-width="1" opacity="1" d="M 195.5 39 L 196 52.5 L 195 52.5 L 195.5 39 Z " /><path fill="rgb(70,79,90)" stroke="rgb(70,79,90)" stroke-width="1" opacity="1" d="M 104.5 47 L 105 49.5 L 104 49.5 L 104.5 47 Z " /><path fill="rgb(70,79,90)" stroke="rgb(70,79,90)" stroke-width="1" opacity="1" d="M 98.5 60 L 99 71.5 L 98 71.5 L 98.5 60 Z " /><path fill="rgb(70,79,90)" stroke="rgb(70,79,90)" stroke-width="1" opacity="1" d="M 131.5 62 L 133 66.5 L 131 65.5 L 131.5 62 Z " /><path fill="rgb(70,79,90)" stroke="rgb(70,79,90)" stroke-width="1" opacity="1" d="M 194.5 66 L 195 74.5 L 194 74.5 L 194.5 66 Z " /><path fill="rgb(70,79,90)" stroke="rgb(70,79,90)" stroke-width="1" opacity="1" d="M 105.5 73 L 106 76.5 L 105 76.5 L 105.5 73 Z " /><path fill="rgb(70,79,90)" stroke="rgb(70,79,90)" stroke-width="1" opacity="1" d="M 194.5 76 L 195 78.5 L 194 78.5 L 194.5 76 Z " /><path fill="rgb(70,79,90)" stroke="rgb(70,79,90)" stroke-width="1" opacity="1" d="M 99.5 87 L 100 100.5 L 99 100.5 L 99.5 87 Z " /><path fill="rgb(70,79,90)" stroke="rgb(70,79,90)" stroke-width="1" opacity="1" d="M 193.5 93 L 194 105.5 L 193 105.5 L 193.5 93 Z " /><path fill="rgb(70,79,90)" stroke="rgb(70,79,90)" stroke-width="1" opacity="1" d="M 192.5 119 L 193 126.5 L 192 126.5 L 192.5 119 Z " /><path fill="rgb(70,79,90)" stroke="rgb(70,79,90)" stroke-width="1" opacity="1" d="M 107.5 121 L 108 123.5 L 107 123.5 L 107.5 121 Z " /><path fill="rgb(70,79,90)" stroke="rgb(70,79,90)" stroke-width="1" opacity="1" d="M 100.5 123 L 101 169.5 L 100 169.5 L 100.5 123 Z " /><path fill="rgb(70,79,90)" stroke="rgb(70,79,90)" stroke-width="1" opacity="1" d="M 226.5 123 L 227 136.5 L 226 136.5 L 226.5 123 Z " /><path fill="rgb(70,79,90)" stroke="rgb(70,79,90)" stroke-width="1" opacity="1" d="M 158.5 147 L 159.5 149 L 158.5 147 Z " /><path fill="rgb(70,79,90)" stroke="rgb(70,79,90)" stroke-width="1" opacity="1" d="M 194.5 155 L 197 155.5 Q 194.9 158.8 194.5 155 Z " /><path fill="rgb(70,79,90)" stroke="rgb(70,79,90)" stroke-width="1" opacity="1" d="M 230.5 159 L 231.5 161 L 230.5 159 Z " /><path fill="rgb(70,79,90)" stroke="rgb(70,79,90)" stroke-width="1" opacity="1" d="M 233.5 164 L 234 166.5 L 233 166.5 L 233.5 164 Z " /><path fill="rgb(70,79,90)" stroke="rgb(70,79,90)" stroke-width="1" opacity="1" d="M 142.5 165 L 143 167.5 L 142 167.5 L 142.5 165 Z " /><path fill="rgb(70,79,90)" stroke="rgb(70,79,90)" stroke-width="1" opacity="1" d="M 150.5 170 L 151 181.5 L 150 181.5 L 150.5 170 Z " /><path fill="rgb(70,79,90)" stroke="rgb(70,79,90)" stroke-width="1" opacity="1" d="M 120.5 178 L 130 178.5 L 120.5 179 L 120.5 178 Z " /><path fill="rgb(70,79,90)" stroke="rgb(70,79,90)" stroke-width="1" opacity="1" d="M 116.5 185 L 135 185.5 L 116.5 186 L 116.5 185 Z " /><path fill="rgb(70,79,90)" stroke="rgb(70,79,90)" stroke-width="1" opacity="1" d="M 146.5 189 L 147.5 191 L 146.5 189 Z " /><path fill="rgb(70,79,90)" stroke="rgb(70,79,90)" stroke-width="1" opacity="1" d="M 78.5 194 L 79 196.5 L 78 196.5 L 78.5 194 Z " /><path fill="rgb(70,79,90)" stroke="rgb(70,79,90)" stroke-width="1" opacity="1" d="M 157.5 199 L 158 207.5 L 157 207.5 L 157.5 199 Z " /><path fill="rgb(70,79,90)" stroke="rgb(70,79,90)" stroke-width="1" opacity="1" d="M 78.5 208 L 79 211.5 L 78 211.5 L 78.5 208 Z " /><path fill="rgb(70,79,90)" stroke="rgb(70,79,90)" stroke-width="1" opacity="1" d="M 233.5 208 L 234 211.5 L 233 211.5 L 233.5 208 Z " /><path fill="rgb(70,79,90)" stroke="rgb(70,79,90)" stroke-width="1" opacity="1" d="M 93.5 227 L 131 227.5 L 93.5 228 L 93.5 227 Z " /><path fill="rgb(70,79,90)" stroke="rgb(70,79,90)" stroke-width="1" opacity="1" d="M 172.5 227 L 183 227.5 L 172.5 228 L 172.5 227 Z " /><path fill="rgb(70,79,90)" stroke="rgb(70,79,90)" stroke-width="1" opacity="1" d="M 207.5 227 L 215 227.5 L 207.5 228 L 207.5 227 Z " /><path fill="rgb(70,79,90)" stroke="rgb(70,79,90)" stroke-width="1" opacity="1" d="M 74.5 228 L 73.5 230 L 74.5 228 Z " /><path fill="rgb(70,79,90)" stroke="rgb(70,79,90)" stroke-width="1" opacity="1" d="M 154.5 236 L 155 239.5 L 154 239.5 L 154.5 236 Z " /><path fill="rgb(70,79,90)" stroke="rgb(70,79,90)" stroke-width="1" opacity="1" d="M 142.5 237 L 143 239.5 L 142 239.5 L 142.5 237 Z " /><path fill="rgb(70,79,90)" stroke="rgb(70,79,90)" stroke-width="1" opacity="1" d="M 226.5 237 L 227 250.5 L 226 250.5 L 226.5 237 Z " /><path fill="rgb(70,79,90)" stroke="rgb(70,79,90)" stroke-width="1" opacity="1" d="M 70.5 238 L 71 251.5 L 70 251.5 L 70.5 238 Z " /><path fill="rgb(70,79,90)" stroke="rgb(70,79,90)" stroke-width="1" opacity="1" d="M 154.5 249 L 155 253.5 L 154 253.5 L 154.5 249 Z " /><path fill="rgb(70,79,90)" stroke="rgb(70,79,90)" stroke-width="1" opacity="1" d="M 140.5 256 L 139.5 258 L 140.5 256 Z " /><path fill="rgb(70,79,90)" stroke="rgb(70,79,90)" stroke-width="1" opacity="1" d="M 157.5 260 L 158.5 262 L 157.5 260 Z " /><path fill="rgb(70,79,90)" stroke="rgb(70,79,90)" stroke-width="1" opacity="1" d="M 59.5 261 L 60 263.5 L 59 263.5 L 59.5 261 Z " /><path fill="rgb(68,77,88)" stroke="rgb(68,77,88)" stroke-width="1" opacity="1" d="M 116.5 48 L 117 79.5 L 116 79.5 L 116.5 48 Z " /><path fill="rgb(68,77,88)" stroke="rgb(68,77,88)" stroke-width="1" opacity="1" d="M 177.5 49 L 178 78.5 L 177 78.5 L 177.5 49 Z " /><path fill="rgb(68,77,88)" stroke="rgb(68,77,88)" stroke-width="1" opacity="1" d="M 59.5 53 L 60 58.5 L 59 58.5 L 59.5 53 Z " /><path fill="rgb(68,77,88)" stroke="rgb(68,77,88)" stroke-width="1" opacity="1" d="M 195.5 53 L 196 59.5 L 195 59.5 L 195.5 53 Z " /><path fill="rgb(68,77,88)" stroke="rgb(68,77,88)" stroke-width="1" opacity="1" d="M 234.5 53 L 235 58.5 L 234 58.5 L 234.5 53 Z " /><path fill="rgb(68,77,88)" stroke="rgb(68,77,88)" stroke-width="1" opacity="1" d="M 98.5 54 L 99 59.5 L 98 59.5 L 98.5 54 Z " /><path fill="rgb(68,77,88)" stroke="rgb(68,77,88)" stroke-width="1" opacity="1" d="M 59.5 70 L 60 124.5 L 59 124.5 L 59.5 70 Z " /><path fill="rgb(68,77,88)" stroke="rgb(68,77,88)" stroke-width="1" opacity="1" d="M 234.5 78 L 235 124.5 L 234 124.5 L 234.5 78 Z " /><path fill="rgb(68,77,88)" stroke="rgb(68,77,88)" stroke-width="1" opacity="1" d="M 194.5 79 L 195 86.5 L 194 86.5 L 194.5 79 Z " /><path fill="rgb(68,77,88)" stroke="rgb(68,77,88)" stroke-width="1" opacity="1" d="M 99.5 81 L 100 86.5 L 99 86.5 L 99.5 81 Z " /><path fill="rgb(68,77,88)" stroke="rgb(68,77,88)" stroke-width="1" opacity="1" d="M 118.5 84 L 119.5 86 L 118.5 84 Z " /><path fill="rgb(68,77,88)" stroke="rgb(68,77,88)" stroke-width="1" opacity="1" d="M 193.5 106 L 194 108.5 L 193 108.5 L 193.5 106 Z " /><path fill="rgb(68,77,88)" stroke="rgb(68,77,88)" stroke-width="1" opacity="1" d="M 129.5 110 L 128.5 112 L 129.5 110 Z " /><path fill="rgb(68,77,88)" stroke="rgb(68,77,88)" stroke-width="1" opacity="1" d="M 193.5 110 L 194 112.5 L 193 112.5 L 193.5 110 Z " /><path fill="rgb(68,77,88)" stroke="rgb(68,77,88)" stroke-width="1" opacity="1" d="M 219.5 114 L 220.5 116 L 219.5 114 Z " /><path fill="rgb(68,77,88)" stroke="rgb(68,77,88)" stroke-width="1" opacity="1" d="M 128.5 115 L 129.5 117 L 128.5 115 Z " /><path fill="rgb(68,77,88)" stroke="rgb(68,77,88)" stroke-width="1" opacity="1" d="M 96.5 116 L 99.5 120 L 96.5 116 Z " /><path fill="rgb(68,77,88)" stroke="rgb(68,77,88)" stroke-width="1" opacity="1" d="M 222.5 116 L 223.5 118 L 222.5 116 Z " /><path fill="rgb(68,77,88)" stroke="rgb(68,77,88)" stroke-width="1" opacity="1" d="M 234.5 137 L 235 151.5 L 234 151.5 L 234.5 137 Z " /><path fill="rgb(68,77,88)" stroke="rgb(68,77,88)" stroke-width="1" opacity="1" d="M 224.5 142 L 221.5 146 L 224.5 142 Z " /><path fill="rgb(68,77,88)" stroke="rgb(68,77,88)" stroke-width="1" opacity="1" d="M 160.5 149 L 161.5 151 L 160.5 149 Z " /><path fill="rgb(68,77,88)" stroke="rgb(68,77,88)" stroke-width="1" opacity="1" d="M 159.5 151 L 158.5 153 L 159.5 151 Z " /><path fill="rgb(68,77,88)" stroke="rgb(68,77,88)" stroke-width="1" opacity="1" d="M 155.5 155 L 154.5 157 L 155.5 155 Z " /><path fill="rgb(68,77,88)" stroke="rgb(68,77,88)" stroke-width="1" opacity="1" d="M 190.5 161 L 192 163.5 L 191 163.5 L 190.5 161 Z " /><path fill="rgb(68,77,88)" stroke="rgb(68,77,88)" stroke-width="1" opacity="1" d="M 192.5 165 L 193 209.5 L 192 209.5 L 192.5 165 Z " /><path fill="rgb(68,77,88)" stroke="rgb(68,77,88)" stroke-width="1" opacity="1" d="M 150.5 166 L 151 169.5 L 150 169.5 L 150.5 166 Z " /><path fill="rgb(68,77,88)" stroke="rgb(68,77,88)" stroke-width="1" opacity="1" d="M 59.5 168 L 60 260.5 L 59 260.5 L 59.5 168 Z " /><path fill="rgb(68,77,88)" stroke="rgb(68,77,88)" stroke-width="1" opacity="1" d="M 98.5 173 L 96.5 176 L 98.5 173 Z " /><path fill="rgb(68,77,88)" stroke="rgb(68,77,88)" stroke-width="1" opacity="1" d="M 82.5 186 L 82 187.5 L 80.5 190 L 81 188.5 L 82.5 186 Z " /><path fill="rgb(68,77,88)" stroke="rgb(68,77,88)" stroke-width="1" opacity="1" d="M 144.5 187 L 145.5 189 L 144.5 187 Z " /><path fill="rgb(68,77,88)" stroke="rgb(68,77,88)" stroke-width="1" opacity="1" d="M 150.5 196 L 151 210.5 L 150 210.5 L 150.5 196 Z " /><path fill="rgb(68,77,88)" stroke="rgb(68,77,88)" stroke-width="1" opacity="1" d="M 78.5 197 L 79 207.5 L 78 207.5 L 78.5 197 Z " /><path fill="rgb(68,77,88)" stroke="rgb(68,77,88)" stroke-width="1" opacity="1" d="M 148.5 214 L 147.5 216 L 148.5 214 Z " /><path fill="rgb(68,77,88)" stroke="rgb(68,77,88)" stroke-width="1" opacity="1" d="M 190.5 214 L 186.5 219 L 190.5 214 Z " /><path fill="rgb(68,77,88)" stroke="rgb(68,77,88)" stroke-width="1" opacity="1" d="M 231.5 215 L 229.5 218 L 231.5 215 Z " /><path fill="rgb(68,77,88)" stroke="rgb(68,77,88)" stroke-width="1" opacity="1" d="M 82.5 219 L 83.5 221 L 82.5 219 Z " /><path fill="rgb(68,77,88)" stroke="rgb(68,77,88)" stroke-width="1" opacity="1" d="M 154.5 219 L 157.5 223 L 154.5 219 Z " /><path fill="rgb(68,77,88)" stroke="rgb(68,77,88)" stroke-width="1" opacity="1" d="M 234.5 223 L 235 239.5 L 234 239.5 L 234.5 223 Z " /><path fill="rgb(68,77,88)" stroke="rgb(68,77,88)" stroke-width="1" opacity="1" d="M 78.5 224 L 75.5 228 L 78.5 224 Z " /><path fill="rgb(68,77,88)" stroke="rgb(68,77,88)" stroke-width="1" opacity="1" d="M 159.5 227 L 158.5 229 L 159.5 227 Z " /><path fill="rgb(68,77,88)" stroke="rgb(68,77,88)" stroke-width="1" opacity="1" d="M 135.5 228 L 136.5 230 L 135.5 228 Z " /><path fill="rgb(68,77,88)" stroke="rgb(68,77,88)" stroke-width="1" opacity="1" d="M 138.5 230 L 139.5 232 L 138.5 230 Z " /><path fill="rgb(68,77,88)" stroke="rgb(68,77,88)" stroke-width="1" opacity="1" d="M 157.5 230 L 157 231.5 L 156.5 233 L 156 231.5 L 157.5 230 Z " /><path fill="rgb(68,77,88)" stroke="rgb(68,77,88)" stroke-width="1" opacity="1" d="M 154.5 240 L 155 248.5 L 154 248.5 L 154.5 240 Z " /><path fill="rgb(68,77,88)" stroke="rgb(68,77,88)" stroke-width="1" opacity="1" d="M 234.5 251 L 235 260.5 L 234 260.5 L 234.5 251 Z " /><path fill="rgb(68,77,88)" stroke="rgb(68,77,88)" stroke-width="1" opacity="1" d="M 224.5 256 L 223.5 258 L 224.5 256 Z " /></svg>